<svg xmlns="http://www.w3.org/2000/svg" viewBox="0 0 316 316" style="enable-background:new 0 0 316 316;" xml:space="preserve">
  <style type="text/css">path{fill-rule: evenodd}</style>
  <g>
    <path d="M54.3,38.1h206.8c9.2,0,16.8,7.6,16.8,16.8v206.8c0,9.2-7.6,16.8-16.8,16.8H54.3c-9.2,0-16.8-7.6-16.8-16.8V54.5C37.9,45.3,45.1,38.1,54.3,38.1z M213,223.8h-31.6l-46.7-81.9v81.9H103V92.2h31.7l46.6,81.9V92.2H213V223.8z"/>
    <path d="M239.7,27h1V7.7c0-4-3.2-7.6-7.6-7.6h-24.8c-4.4,0-7.6,3.2-7.6,7.6V27H239.7z"/>
    <path d="M115.1,27V7.7c0-4-3.2-7.6-7.6-7.6H82.7c-4,0-7.6,3.2-7.6,7.6V27H115.1z"/>
    <path d="M178.7,27V7.7c0-4-3.2-7.6-7.6-7.6h-24.8c-4,0-7.6,3.2-7.6,7.6V27H178.7z"/>
    <path d="M78.6,289.6c-1.2,0-2.4,0-3.5-0.1v18.8c0,4,3.2,7.6,7.6,7.6h24.8c4,0,7.6-3.2,7.6-7.6v-18.7H78.6z"/>
    <path d="M138.7,289.6v18.7c0,4,3.2,7.6,7.6,7.6h24.8c4,0,7.6-3.2,7.6-7.6v-18.7H138.7z"/>
    <path d="M308.3,200.9H289v40h19.3c4,0,7.6-3.2,7.6-7.6v-24.8C315.9,204.1,312.7,200.9,308.3,200.9z"/>
    <path d="M200.7,289.6v18.7c0,4,3.2,7.6,7.6,7.6h24.8c4,0,7.6-3.2,7.6-7.6v-18.7H200.7z"/>
    <path d="M308.3,136.9H289v40h19.3c4,0,7.6-3.2,7.6-7.6v-24.8C315.9,140.5,312.7,136.9,308.3,136.9z"/>
    <path d="M308.3,75.3H289v2.4c0,0.4,0,0.7,0,1.1v36.5h19.3c4,0,7.6-3.2,7.6-7.6V82.9C315.9,78.9,312.7,75.3,308.3,75.3z"/>
    <path d="M26.3,200.9H7.7c-4,0-7.6,3.2-7.6,7.6v24.8c0,4,3.2,7.6,7.6,7.6h18.6V200.9z"/>
    <path d="M26.3,136.9H7.7c-4,0-7.6,3.2-7.6,7.6v24.8c0,4,3.2,7.6,7.6,7.6h18.6V136.9z"/>
    <path d="M26.3,75.3H7.7c-4,0-7.6,3.2-7.6,7.6v24.8c0,4,3.2,7.6,7.6,7.6h18.6V75.3z"/>
  </g>
</svg>
